<?xml version="1.0" encoding="utf-8"?><svg viewBox="0 0 512 512" xmlns="http://www.w3.org/2000/svg" xmlns:xlink="http://www.w3.org/1999/xlink"><style>:root>svg{display:none}:root>svg:target{display:block}</style><svg viewBox="0 0 24 24" id="address" xmlns="http://www.w3.org/2000/svg"><path d="M22 9v6c0 2.5-.5 4.25-1.62 5.38L14 14l7.73-7.73c.18.79.27 1.69.27 2.73z"/><path d="M21.73 6.27L6.27 21.73C3.26 21.04 2 18.96 2 15V9c0-5 2-7 7-7h6c3.96 0 6.04 1.26 6.73 4.27z"/><path d="M20.38 20.38C19.25 21.5 17.5 22 15 22H9c-1.04 0-1.94-.09-2.73-.27L14 14l6.38 6.38zM6.24 7.98c.68-2.93 5.08-2.93 5.76 0 .39 1.72-.69 3.18-1.64 4.08a1.8 1.8 0 01-2.48 0c-.95-.9-2.04-2.36-1.64-4.08zM9.095 8.7h.009"/></svg><svg viewBox="0 0 32 32" id="close" xmlns="http://www.w3.org/2000/svg"><path d="M32 28.8L19.2 16 32 3.2 28.8 0 16 12.8 3.2 0 0 3.2 12.8 16 0 28.8 3.2 32 16 19.2 28.8 32l3.2-3.2z"/></svg><svg viewBox="0 0 5 5" id="dot" xmlns="http://www.w3.org/2000/svg"><circle cx="2.5" cy="2.5" r="2.5"/></svg><svg viewBox="0 0 24 24" id="email" xmlns="http://www.w3.org/2000/svg"><path d="M17 20.5H7c-3 0-5-1.5-5-5v-7c0-3.5 2-5 5-5h10c3 0 5 1.5 5 5v7c0 3.5-2 5-5 5z"/><path d="M17 9l-3.13 2.5c-1.03.82-2.72.82-3.75 0L7 9"/></svg><svg viewBox="0 0 24 24" id="facebook" xmlns="http://www.w3.org/2000/svg"><path d="M15.402 21v-6.966h2.333l.349-2.708h-2.682V9.598c0-.784.218-1.319 1.342-1.319h1.434V5.857a19.188 19.188 0 00-2.09-.107c-2.067 0-3.482 1.262-3.482 3.58v1.996h-2.338v2.708h2.338V21H4a1 1 0 01-1-1V4a1 1 0 011-1h16a1 1 0 011 1v16a1 1 0 01-1 1h-4.598z"/></svg><svg viewBox="0 0 24 24" id="instagram" xmlns="http://www.w3.org/2000/svg"><path d="M12 2c2.717 0 3.056.01 4.122.06 1.065.05 1.79.217 2.428.465.66.254 1.216.598 1.772 1.153.509.5.902 1.105 1.153 1.772.247.637.415 1.363.465 2.428.047 1.066.06 1.405.06 4.122 0 2.717-.01 3.056-.06 4.122-.05 1.065-.218 1.79-.465 2.428a4.883 4.883 0 01-1.153 1.772c-.5.508-1.105.902-1.772 1.153-.637.247-1.363.415-2.428.465-1.066.047-1.405.06-4.122.06-2.717 0-3.056-.01-4.122-.06-1.065-.05-1.79-.218-2.428-.465a4.89 4.89 0 01-1.772-1.153 4.904 4.904 0 01-1.153-1.772c-.248-.637-.415-1.363-.465-2.428C2.013 15.056 2 14.717 2 12c0-2.717.01-3.056.06-4.122.05-1.066.217-1.79.465-2.428a4.88 4.88 0 011.153-1.772A4.897 4.897 0 015.45 2.525c.638-.248 1.362-.415 2.428-.465C8.944 2.013 9.283 2 12 2zm0 5a5 5 0 100 10 5 5 0 000-10zm6.5-.25a1.25 1.25 0 10-2.5 0 1.25 1.25 0 002.5 0zM12 9a3 3 0 110 6 3 3 0 010-6z"/></svg><svg viewBox="0 0 24 24" id="left" xmlns="http://www.w3.org/2000/svg"><path d="M16.752 23.994l-9.873-9.873a3 3 0 010-4.242L16.746.012l1.414 1.414-9.867 9.867a1 1 0 000 1.414l9.873 9.873z" data-name="01 align center"/></svg><svg viewBox="0 0 24 24" id="phone" xmlns="http://www.w3.org/2000/svg"><path d="M21.97 18.33c0 .36-.08.73-.25 1.09-.17.36-.39.7-.68 1.02-.49.54-1.03.93-1.64 1.18-.6.25-1.25.38-1.95.38-1.02 0-2.11-.24-3.26-.73s-2.3-1.15-3.44-1.98a28.75 28.75 0 01-3.28-2.8 28.414 28.414 0 01-2.79-3.27c-.82-1.14-1.48-2.28-1.96-3.41C2.24 8.67 2 7.58 2 6.54c0-.68.12-1.33.36-1.93.24-.61.62-1.17 1.15-1.67C4.15 2.31 4.85 2 5.59 2c.28 0 .56.06.81.18.26.12.49.3.67.56l2.32 3.27c.18.25.31.48.4.7.09.21.14.42.14.61 0 .24-.07.48-.21.71-.13.23-.32.47-.56.71l-.76.79c-.11.11-.16.24-.16.4 0 .08.01.15.03.23.03.08.06.14.08.2.18.33.49.76.93 1.28.45.52.93 1.05 1.45 1.58.54.53 1.06 1.02 1.59 1.47.52.44.95.74 1.29.92.05.02.11.05.18.08.08.03.16.04.25.04.17 0 .3-.06.41-.17l.76-.75c.25-.25.49-.44.72-.56.23-.14.46-.21.71-.21.19 0 .39.04.61.13.22.09.45.22.7.39l3.31 2.35c.26.18.44.39.55.64.1.25.16.5.16.78zM18.5 9c0-.6-.47-1.52-1.17-2.27-.64-.69-1.49-1.23-2.33-1.23M22 9c0-3.87-3.13-7-7-7"/></svg><svg viewBox="0 0 24 24" id="right" xmlns="http://www.w3.org/2000/svg"><path d="M7.412 24L6 22.588l9.881-9.881a1 1 0 000-1.414L6.017 1.431 7.431.017l9.862 9.862a3 3 0 010 4.242z" data-name="01 align center"/></svg><svg viewBox="0 0 24 24" id="time" xmlns="http://www.w3.org/2000/svg"><path d="M22 12c0 5.52-4.48 10-10 10S2 17.52 2 12 6.48 2 12 2s10 4.48 10 10z"/><path d="M15.71 15.18l-3.1-1.85c-.54-.32-.98-1.09-.98-1.72v-4.1"/></svg><svg viewBox="0 0 22 18" id="twitter" xmlns="http://www.w3.org/2000/svg"><path d="M21.162 2.656a8.385 8.385 0 01-2.402.658A4.196 4.196 0 0020.6 1c-.82.488-1.719.83-2.656 1.015a4.182 4.182 0 00-7.126 3.814 11.874 11.874 0 01-8.62-4.37 4.168 4.168 0 00-.566 2.103c0 1.45.738 2.73 1.86 3.48a4.168 4.168 0 01-1.894-.522v.052a4.185 4.185 0 003.355 4.1 4.208 4.208 0 01-1.89.073A4.185 4.185 0 006.97 13.65a8.393 8.393 0 01-6.19 1.732 11.83 11.83 0 006.409 1.88c7.693 0 11.9-6.373 11.9-11.9 0-.18-.005-.362-.013-.54a8.497 8.497 0 002.087-2.165v-.001z"/></svg><svg viewBox="0 0 24 24" id="youtube" xmlns="http://www.w3.org/2000/svg"><path d="M21.543 6.498C22 8.28 22 12 22 12s0 3.72-.457 5.502c-.254.985-.997 1.76-1.938 2.022C17.896 20 12 20 12 20s-5.893 0-7.605-.476c-.945-.266-1.687-1.04-1.938-2.022C2 15.72 2 12 2 12s0-3.72.457-5.502c.254-.985.997-1.76 1.938-2.022C6.107 4 12 4 12 4s5.896 0 7.605.476c.945.266 1.687 1.04 1.938 2.022zM10 15.5l6-3.5-6-3.5v7z"/></svg><svg viewBox="0 0 83 58" id="“quotes" xmlns="http://www.w3.org/2000/svg"><path d="M20.134 58c-3.425 0-6.506-.606-9.245-1.819-2.603-1.347-4.657-3.166-6.164-5.456-1.37-2.021-2.534-4.581-3.492-7.68C.41 39.812 0 36.376 0 32.74c0-6.737 1.712-13.001 5.136-18.795C8.697 8.016 14.176 3.368 21.572 0l1.849 3.638c-3.698 1.616-6.985 4.041-9.862 7.275-2.876 3.099-4.725 6.4-5.547 9.902-.958 3.368-1.095 6.602-.41 9.7 3.287-3.637 7.806-5.456 13.559-5.456 5.067 0 9.176 1.415 12.327 4.244 3.15 2.83 4.725 6.871 4.725 12.126 0 4.984-1.712 9.026-5.136 12.125C29.79 56.518 25.475 58 20.134 58zm44.787 0c-3.424 0-6.506-.606-9.245-1.819-2.603-1.347-4.657-3.166-6.164-5.456-1.37-2.021-2.533-4.581-3.492-7.68-.822-3.233-1.233-6.669-1.233-10.306 0-6.737 1.712-13.001 5.136-18.795C53.484 8.016 58.963 3.368 66.36 0l1.849 3.638c-3.698 1.616-6.985 4.041-9.861 7.275-2.877 3.099-4.726 6.4-5.547 9.902-.96 3.368-1.096 6.602-.411 9.7 3.287-3.637 7.807-5.456 13.56-5.456 5.067 0 9.176 1.415 12.326 4.244C81.425 32.133 83 36.174 83 41.43c0 4.984-1.712 9.026-5.136 12.125C74.577 56.518 70.262 58 64.92 58z"/></svg></svg>